%TF.GenerationSoftware,KiCad,Pcbnew,(6.0.10)*%
%TF.CreationDate,2023-02-17T13:49:40-08:00*%
%TF.ProjectId,nixie_clock,6e697869-655f-4636-9c6f-636b2e6b6963,1.5*%
%TF.SameCoordinates,Original*%
%TF.FileFunction,Soldermask,Bot*%
%TF.FilePolarity,Negative*%
%FSLAX46Y46*%
G04 Gerber Fmt 4.6, Leading zero omitted, Abs format (unit mm)*
G04 Created by KiCad (PCBNEW (6.0.10)) date 2023-02-17 13:49:40*
%MOMM*%
%LPD*%
G01*
G04 APERTURE LIST*
G04 Aperture macros list*
%AMRoundRect*
0 Rectangle with rounded corners*
0 $1 Rounding radius*
0 $2 $3 $4 $5 $6 $7 $8 $9 X,Y pos of 4 corners*
0 Add a 4 corners polygon primitive as box body*
4,1,4,$2,$3,$4,$5,$6,$7,$8,$9,$2,$3,0*
0 Add four circle primitives for the rounded corners*
1,1,$1+$1,$2,$3*
1,1,$1+$1,$4,$5*
1,1,$1+$1,$6,$7*
1,1,$1+$1,$8,$9*
0 Add four rect primitives between the rounded corners*
20,1,$1+$1,$2,$3,$4,$5,0*
20,1,$1+$1,$4,$5,$6,$7,0*
20,1,$1+$1,$6,$7,$8,$9,0*
20,1,$1+$1,$8,$9,$2,$3,0*%
G04 Aperture macros list end*
%ADD10C,2.000000*%
%ADD11R,1.050000X1.500000*%
%ADD12O,1.050000X1.500000*%
%ADD13C,5.000000*%
%ADD14C,2.743200*%
%ADD15R,1.700000X1.700000*%
%ADD16O,1.700000X1.700000*%
%ADD17C,1.500000*%
%ADD18C,1.600000*%
%ADD19O,1.600000X1.600000*%
%ADD20R,1.500000X2.500000*%
%ADD21O,1.500000X2.500000*%
%ADD22R,2.100000X2.100000*%
%ADD23C,2.100000*%
%ADD24R,1.600000X1.600000*%
%ADD25C,3.600000*%
%ADD26C,5.600000*%
%ADD27C,2.900000*%
%ADD28R,3.500000X3.500000*%
%ADD29RoundRect,0.750000X0.750000X1.000000X-0.750000X1.000000X-0.750000X-1.000000X0.750000X-1.000000X0*%
%ADD30RoundRect,0.875000X0.875000X0.875000X-0.875000X0.875000X-0.875000X-0.875000X0.875000X-0.875000X0*%
G04 APERTURE END LIST*
D10*
%TO.C,SW0*%
X68515564Y-126420000D03*
X62015564Y-126420000D03*
X68515564Y-121920000D03*
X62015564Y-121920000D03*
%TD*%
D11*
%TO.C,QC1*%
X150482671Y-74903210D03*
D12*
X149212671Y-74903210D03*
X147942671Y-74903210D03*
%TD*%
D13*
%TO.C,Min1*%
X166670414Y-91429763D03*
D14*
X171717914Y-95929763D03*
X162352914Y-99247263D03*
X160670414Y-95929763D03*
X160543414Y-91429763D03*
X160670414Y-86929763D03*
X162352914Y-83612263D03*
X166352914Y-82612263D03*
X170352914Y-83612263D03*
X171717914Y-86929763D03*
X171844914Y-91429763D03*
X170352914Y-99247263D03*
X166352914Y-100247263D03*
%TD*%
D15*
%TO.C,J5*%
X86166832Y-90624125D03*
D16*
X86166832Y-88084125D03*
%TD*%
D17*
%TO.C,Y0*%
X90147738Y-103380000D03*
X90147738Y-108260000D03*
%TD*%
D13*
%TO.C,Hour1*%
X113783296Y-91500956D03*
D14*
X118830796Y-96000956D03*
X109465796Y-99318456D03*
X107783296Y-96000956D03*
X107656296Y-91500956D03*
X107783296Y-87000956D03*
X109465796Y-83683456D03*
X113465796Y-82683456D03*
X117465796Y-83683456D03*
X118830796Y-87000956D03*
X118957796Y-91500956D03*
X117465796Y-99318456D03*
X113465796Y-100318456D03*
%TD*%
D18*
%TO.C,Rd0*%
X152438074Y-106470400D03*
D19*
X149898074Y-106470400D03*
%TD*%
D18*
%TO.C,R4*%
X137220414Y-64739763D03*
D19*
X137220414Y-67279763D03*
%TD*%
D18*
%TO.C,C3*%
X76640000Y-111760000D03*
X74140000Y-111760000D03*
%TD*%
D20*
%TO.C,C_Bat1*%
X68580000Y-106680000D03*
D21*
X63580000Y-106680000D03*
%TD*%
D22*
%TO.C,J3*%
X180340000Y-121920000D03*
D23*
X177800000Y-121920000D03*
X175260000Y-121920000D03*
X172720000Y-121920000D03*
%TD*%
D13*
%TO.C,Min0*%
X189490832Y-91429763D03*
D14*
X194538332Y-95929763D03*
X185173332Y-99247263D03*
X183490832Y-95929763D03*
X183363832Y-91429763D03*
X183490832Y-86929763D03*
X185173332Y-83612263D03*
X189173332Y-82612263D03*
X193173332Y-83612263D03*
X194538332Y-86929763D03*
X194665332Y-91429763D03*
X193173332Y-99247263D03*
X189173332Y-100247263D03*
%TD*%
D22*
%TO.C,J2*%
X198095634Y-107733126D03*
D23*
X195555634Y-107733126D03*
%TD*%
D24*
%TO.C,D1*%
X73236593Y-102414472D03*
D19*
X73236593Y-94794472D03*
%TD*%
D25*
%TO.C,REF\u002A\u002A*%
X56500000Y-131500000D03*
D26*
X56500000Y-131500000D03*
%TD*%
D18*
%TO.C,Rd1*%
X152458170Y-101642782D03*
D19*
X149918170Y-101642782D03*
%TD*%
D18*
%TO.C,R9*%
X162620414Y-64739763D03*
D19*
X162620414Y-67279763D03*
%TD*%
D11*
%TO.C,Q2*%
X131446238Y-74899763D03*
D12*
X130176238Y-74899763D03*
X128906238Y-74899763D03*
%TD*%
D18*
%TO.C,R0*%
X116900414Y-64739763D03*
D19*
X116900414Y-67279763D03*
%TD*%
D18*
%TO.C,C5*%
X165140000Y-119380000D03*
X167640000Y-119380000D03*
%TD*%
%TO.C,R2*%
X127060414Y-64739763D03*
D19*
X127060414Y-67279763D03*
%TD*%
D24*
%TO.C,UM1*%
X160803779Y-111516736D03*
D19*
X163343779Y-111516736D03*
X163343779Y-103896736D03*
X160803779Y-103896736D03*
%TD*%
D18*
%TO.C,CX1*%
X85934104Y-110534304D03*
X83434104Y-110534304D03*
%TD*%
D24*
%TO.C,NE1*%
X148890414Y-86349763D03*
D18*
X153890414Y-86349763D03*
%TD*%
D15*
%TO.C,J4*%
X92721963Y-88084125D03*
D16*
X90181963Y-88084125D03*
%TD*%
D15*
%TO.C,J6*%
X132955267Y-124084884D03*
D16*
X132955267Y-121544884D03*
X135495267Y-124084884D03*
X135495267Y-121544884D03*
X138035267Y-124084884D03*
X138035267Y-121544884D03*
%TD*%
D18*
%TO.C,Rd2*%
X120160247Y-109964681D03*
D19*
X117620247Y-109964681D03*
%TD*%
D11*
%TO.C,QPM1*%
X112199964Y-74954145D03*
D12*
X110929964Y-74954145D03*
X109659964Y-74954145D03*
%TD*%
D18*
%TO.C,RPM1*%
X102749270Y-100346610D03*
D19*
X102749270Y-102886610D03*
%TD*%
D11*
%TO.C,Q5*%
X156891882Y-74903167D03*
D12*
X155621882Y-74903167D03*
X154351882Y-74903167D03*
%TD*%
D24*
%TO.C,UM0*%
X181665414Y-111719763D03*
D19*
X184205414Y-111719763D03*
X184205414Y-104099763D03*
X181665414Y-104099763D03*
%TD*%
D24*
%TO.C,NE2*%
X148897390Y-95502263D03*
D18*
X153897390Y-95502263D03*
%TD*%
D11*
%TO.C,Q9*%
X182291882Y-74903167D03*
D12*
X181021882Y-74903167D03*
X179751882Y-74903167D03*
%TD*%
D18*
%TO.C,Rda1*%
X152400000Y-124460000D03*
D19*
X152400000Y-121920000D03*
%TD*%
D11*
%TO.C,Q4*%
X144146238Y-74899763D03*
D12*
X142876238Y-74899763D03*
X141606238Y-74899763D03*
%TD*%
D25*
%TO.C,REF\u002A\u002A*%
X56500000Y-59000000D03*
D26*
X56500000Y-59000000D03*
%TD*%
D27*
%TO.C,REF\u002A\u002A*%
X225235825Y-104140000D03*
D13*
X225235825Y-104140000D03*
%TD*%
D18*
%TO.C,R3*%
X132140414Y-64739763D03*
D19*
X132140414Y-67279763D03*
%TD*%
D18*
%TO.C,R6*%
X147380414Y-64739763D03*
D19*
X147380414Y-67279763D03*
%TD*%
D18*
%TO.C,R5*%
X142300414Y-64739763D03*
D19*
X142300414Y-67279763D03*
%TD*%
D24*
%TO.C,U1*%
X125780414Y-119359763D03*
D19*
X123240414Y-119359763D03*
X120700414Y-119359763D03*
X118160414Y-119359763D03*
X115620414Y-119359763D03*
X113080414Y-119359763D03*
X110540414Y-119359763D03*
X108000414Y-119359763D03*
X105460414Y-119359763D03*
X102920414Y-119359763D03*
X100380414Y-119359763D03*
X97840414Y-119359763D03*
X95300414Y-119359763D03*
X92760414Y-119359763D03*
X92760414Y-126979763D03*
X95300414Y-126979763D03*
X97840414Y-126979763D03*
X100380414Y-126979763D03*
X102920414Y-126979763D03*
X105460414Y-126979763D03*
X108000414Y-126979763D03*
X110540414Y-126979763D03*
X113080414Y-126979763D03*
X115620414Y-126979763D03*
X118160414Y-126979763D03*
X120700414Y-126979763D03*
X123240414Y-126979763D03*
X125780414Y-126979763D03*
%TD*%
D18*
%TO.C,Rch1*%
X76640000Y-96520000D03*
D19*
X76640000Y-99060000D03*
%TD*%
D18*
%TO.C,Rc1*%
X139404516Y-110249303D03*
D19*
X136864516Y-110249303D03*
%TD*%
D13*
%TO.C,Hour0*%
X136190414Y-91429763D03*
D14*
X141237914Y-95929763D03*
X131872914Y-99247263D03*
X130190414Y-95929763D03*
X130063414Y-91429763D03*
X130190414Y-86929763D03*
X131872914Y-83612263D03*
X135872914Y-82612263D03*
X139872914Y-83612263D03*
X141237914Y-86929763D03*
X141364914Y-91429763D03*
X139872914Y-99247263D03*
X135872914Y-100247263D03*
%TD*%
D18*
%TO.C,R7*%
X152460414Y-64739763D03*
D19*
X152460414Y-67279763D03*
%TD*%
D18*
%TO.C,R8*%
X157540414Y-64739763D03*
D19*
X157540414Y-67279763D03*
%TD*%
D25*
%TO.C,REF\u002A\u002A*%
X246380000Y-131750000D03*
D26*
X246380000Y-131750000D03*
%TD*%
D11*
%TO.C,Q3*%
X137796238Y-74899763D03*
D12*
X136526238Y-74899763D03*
X135256238Y-74899763D03*
%TD*%
D18*
%TO.C,RH0*%
X137314654Y-105729170D03*
D19*
X139854654Y-105729170D03*
%TD*%
D24*
%TO.C,UH0*%
X130015414Y-111749763D03*
D19*
X132555414Y-111749763D03*
X132555414Y-104129763D03*
X130015414Y-104129763D03*
%TD*%
D25*
%TO.C,REF\u002A\u002A*%
X246380000Y-59000000D03*
D26*
X246380000Y-59000000D03*
%TD*%
D18*
%TO.C,CX0*%
X85937995Y-101081412D03*
X83437995Y-101081412D03*
%TD*%
D11*
%TO.C,Q6*%
X163241882Y-74903167D03*
D12*
X161971882Y-74903167D03*
X160701882Y-74903167D03*
%TD*%
D11*
%TO.C,Q8*%
X175941882Y-74903167D03*
D12*
X174671882Y-74903167D03*
X173401882Y-74903167D03*
%TD*%
D11*
%TO.C,Q1*%
X125096238Y-74899763D03*
D12*
X123826238Y-74899763D03*
X122556238Y-74899763D03*
%TD*%
D18*
%TO.C,R1*%
X121980414Y-64739763D03*
D19*
X121980414Y-67279763D03*
%TD*%
D18*
%TO.C,Ra1*%
X191176987Y-109980089D03*
D19*
X188636987Y-109980089D03*
%TD*%
D18*
%TO.C,RM1*%
X168269562Y-106018785D03*
D19*
X170809562Y-106018785D03*
%TD*%
D18*
%TO.C,Rx1*%
X85440968Y-106800509D03*
D19*
X85440968Y-104260509D03*
%TD*%
D27*
%TO.C,REF\u002A\u002A*%
X225235825Y-62105302D03*
D13*
X225235825Y-62105302D03*
%TD*%
D24*
%TO.C,NE3*%
X100897945Y-77467146D03*
D18*
X105897945Y-77467146D03*
%TD*%
D28*
%TO.C,J0*%
X237068212Y-120123855D03*
D29*
X243068212Y-120123855D03*
D30*
X240068212Y-115423855D03*
%TD*%
D24*
%TO.C,UH1*%
X110374288Y-111601137D03*
D19*
X112914288Y-111601137D03*
X112914288Y-103981137D03*
X110374288Y-103981137D03*
%TD*%
D18*
%TO.C,Rcl1*%
X144780000Y-124460000D03*
D19*
X144780000Y-121920000D03*
%TD*%
D11*
%TO.C,Q7*%
X169591882Y-74903167D03*
D12*
X168321882Y-74903167D03*
X167051882Y-74903167D03*
%TD*%
D22*
%TO.C,J1*%
X228600000Y-124460000D03*
D23*
X226060000Y-124460000D03*
%TD*%
D18*
%TO.C,RH1*%
X118019288Y-105261137D03*
D19*
X120559288Y-105261137D03*
%TD*%
D18*
%TO.C,RM0*%
X189145758Y-105379763D03*
D19*
X191685758Y-105379763D03*
%TD*%
D18*
%TO.C,Rb1*%
X170289132Y-109836694D03*
D19*
X167749132Y-109836694D03*
%TD*%
D18*
%TO.C,C4*%
X165100000Y-124460000D03*
X167600000Y-124460000D03*
%TD*%
%TO.C,C2*%
X200660000Y-121920000D03*
X200660000Y-124420000D03*
%TD*%
D11*
%TO.C,Q0*%
X118746238Y-74899763D03*
D12*
X117476238Y-74899763D03*
X116206238Y-74899763D03*
%TD*%
M02*
