M48
; DRILL file {KiCad (6.0.10)} date Fri Feb 17 13:50:02 2023
; FORMAT={-:-/ absolute / inch / decimal}
; #@! TF.CreationDate,2023-02-17T13:50:02-08:00
; #@! TF.GenerationSoftware,Kicad,Pcbnew,(6.0.10)
; #@! TF.FileFunction,Plated,1,2,PTH
FMAT,2
INCH
; #@! TA.AperFunction,Plated,PTH,ViaDrill
T1C0.0157
; #@! TA.AperFunction,Plated,PTH,ViaDrill
T2C0.0197
; #@! TA.AperFunction,Plated,PTH,ComponentDrill
T3C0.0197
; #@! TA.AperFunction,Plated,PTH,ComponentDrill
T4C0.0295
; #@! TA.AperFunction,Plated,PTH,ComponentDrill
T5C0.0315
; #@! TA.AperFunction,Plated,PTH,ComponentDrill
T6C0.0394
; #@! TA.AperFunction,Plated,PTH,ComponentDrill
T7C0.0433
; #@! TA.AperFunction,Plated,PTH,ComponentDrill
T8C0.0984
; #@! TA.AperFunction,Plated,PTH,ComponentDrill
T9C0.1260
%
G90
G05
T1
X2.8Y-4.9
X3.1299Y-3.4055
X3.3646Y-4.9583
X3.4929Y-4.8527
X3.7435Y-4.5433
X3.8Y-2.6
X3.9153Y-3.1754
X4.0066Y-4.5434
X4.1387Y-5.1379
X4.5Y-3.1
X5.0034Y-4.2783
X5.1952Y-4.9933
X5.3Y-3.1
X6.0Y-3.1
X6.2365Y-3.1365
X6.9531Y-3.1557
X7.0513Y-3.2678
T2
X3.3Y-3.8
T4
X4.3173Y-2.951
X4.3673Y-2.951
X4.4173Y-2.951
X4.575Y-2.9488
X4.625Y-2.9488
X4.675Y-2.9488
X4.825Y-2.9488
X4.875Y-2.9488
X4.925Y-2.9488
X5.075Y-2.9488
X5.125Y-2.9488
X5.175Y-2.9488
X5.325Y-2.9488
X5.375Y-2.9488
X5.425Y-2.9488
X5.575Y-2.9488
X5.625Y-2.9488
X5.675Y-2.9488
X5.8245Y-2.9489
X5.8745Y-2.9489
X5.9245Y-2.9489
X6.0768Y-2.9489
X6.1268Y-2.9489
X6.1768Y-2.9489
X6.3268Y-2.9489
X6.3768Y-2.9489
X6.4268Y-2.9489
X6.5768Y-2.9489
X6.6268Y-2.9489
X6.6768Y-2.9489
X6.8268Y-2.9489
X6.8768Y-2.9489
X6.9268Y-2.9489
X7.0768Y-2.9489
X7.1268Y-2.9489
X7.1768Y-2.9489
T5
X2.8833Y-3.7321
X2.8833Y-4.0321
X2.9189Y-4.4
X3.0173Y-3.8
X3.0173Y-3.9
X3.0173Y-4.4
X3.2848Y-4.3517
X3.285Y-3.9796
X3.3638Y-4.1047
X3.3638Y-4.2047
X3.3832Y-4.3517
X3.3834Y-3.9796
X3.5491Y-4.0701
X3.5491Y-4.2622
X3.652Y-4.6992
X3.652Y-4.9992
X3.752Y-4.6992
X3.752Y-4.9992
X3.852Y-4.6992
X3.852Y-4.9992
X3.952Y-4.6992
X3.952Y-4.9992
X3.9724Y-3.0499
X4.0452Y-3.9507
X4.0452Y-4.0507
X4.052Y-4.6992
X4.052Y-4.9992
X4.152Y-4.6992
X4.152Y-4.9992
X4.1692Y-3.0499
X4.252Y-4.6992
X4.252Y-4.9992
X4.3454Y-4.0937
X4.3454Y-4.3937
X4.352Y-4.6992
X4.352Y-4.9992
X4.4454Y-4.0937
X4.4454Y-4.3937
X4.452Y-4.6992
X4.452Y-4.9992
X4.552Y-4.6992
X4.552Y-4.9992
X4.6024Y-2.5488
X4.6024Y-2.6488
X4.6307Y-4.3293
X4.6464Y-4.1441
X4.652Y-4.6992
X4.652Y-4.9992
X4.7307Y-4.3293
X4.7464Y-4.1441
X4.752Y-4.6992
X4.752Y-4.9992
X4.8024Y-2.5488
X4.8024Y-2.6488
X4.852Y-4.6992
X4.852Y-4.9992
X4.952Y-4.6992
X4.952Y-4.9992
X5.0024Y-2.5488
X5.0024Y-2.6488
X5.1187Y-4.0996
X5.1187Y-4.3996
X5.2024Y-2.5488
X5.2024Y-2.6488
X5.2187Y-4.0996
X5.2187Y-4.3996
X5.3884Y-4.3405
X5.4024Y-2.5488
X5.4024Y-2.6488
X5.4061Y-4.1626
X5.4884Y-4.3405
X5.5061Y-4.1626
X5.6024Y-2.5488
X5.6024Y-2.6488
X5.7Y-4.8
X5.7Y-4.9
X5.8024Y-2.5488
X5.8024Y-2.6488
X5.8618Y-3.3996
X5.8621Y-3.7599
X5.9015Y-4.1917
X5.9023Y-4.0017
X6.0Y-4.8
X6.0Y-4.9
X6.0015Y-4.1917
X6.0023Y-4.0017
X6.0024Y-2.5488
X6.0024Y-2.6488
X6.0587Y-3.3996
X6.059Y-3.7599
X6.2024Y-2.5488
X6.2024Y-2.6488
X6.3309Y-4.0904
X6.3309Y-4.3904
X6.4024Y-2.5488
X6.4024Y-2.6488
X6.4309Y-4.0904
X6.4309Y-4.3904
X6.5Y-4.9
X6.5016Y-4.7
X6.5984Y-4.9
X6.6Y-4.7
X6.6043Y-4.3243
X6.6248Y-4.174
X6.7043Y-4.3243
X6.7248Y-4.174
X7.1522Y-4.0984
X7.1522Y-4.3984
X7.2522Y-4.0984
X7.2522Y-4.3984
X7.4267Y-4.3299
X7.4467Y-4.1488
X7.5267Y-4.3299
X7.5467Y-4.1488
X7.9Y-4.8
X7.9Y-4.8984
T6
X3.3924Y-3.4679
X3.3924Y-3.5679
X3.5505Y-3.4679
X3.6505Y-3.4679
X5.2345Y-4.7852
X5.2345Y-4.8852
X5.3345Y-4.7852
X5.3345Y-4.8852
X5.4345Y-4.7852
X5.4345Y-4.8852
T7
X2.4416Y-4.8
X2.4416Y-4.9772
X2.6975Y-4.8
X2.6975Y-4.9772
X4.2384Y-3.6024
X4.2434Y-3.4252
X4.2434Y-3.7796
X4.3097Y-3.2946
X4.3097Y-3.9102
X4.4672Y-3.2553
X4.4672Y-3.9495
X4.6246Y-3.2946
X4.6246Y-3.9102
X4.6784Y-3.4252
X4.6784Y-3.7796
X4.6834Y-3.6024
X5.1206Y-3.5996
X5.1256Y-3.4224
X5.1256Y-3.7768
X5.1918Y-3.2918
X5.1918Y-3.9074
X5.3493Y-3.2525
X5.3493Y-3.9467
X5.5068Y-3.2918
X5.5068Y-3.9074
X5.5605Y-3.4224
X5.5605Y-3.7768
X5.5655Y-3.5996
X6.3206Y-3.5996
X6.3256Y-3.4224
X6.3256Y-3.7768
X6.3918Y-3.2918
X6.3918Y-3.9074
X6.5493Y-3.2525
X6.5493Y-3.9467
X6.7068Y-3.2918
X6.7068Y-3.9074
X6.7605Y-3.4224
X6.7605Y-3.7768
X6.7655Y-3.5996
X6.8Y-4.8
X6.9Y-4.8
X7.0Y-4.8
X7.1Y-4.8
X7.219Y-3.5996
X7.224Y-3.4224
X7.224Y-3.7768
X7.2903Y-3.2918
X7.2903Y-3.9074
X7.4478Y-3.2525
X7.4478Y-3.9467
X7.6052Y-3.2918
X7.6052Y-3.9074
X7.659Y-3.4224
X7.659Y-3.7768
X7.664Y-3.5996
X7.699Y-4.2415
X7.799Y-4.2415
X8.9Y-4.9
X9.0Y-4.9
T8
X8.8676Y-2.4451
X8.8676Y-4.1
T9
X2.2244Y-2.3228
X2.2244Y-5.1772
X9.7Y-2.3228
X9.7Y-5.187
T3
G00X2.5031Y-4.1803
M15
G01X2.5031Y-4.2197
M16
G05
G00X2.7Y-4.1803
M15
G01X2.7Y-4.2197
M16
G05
T6
G00X9.3334Y-4.7687
M15
G01X9.3334Y-4.6899
M16
G05
G00X9.4909Y-4.5442
M15
G01X9.4121Y-4.5442
M16
G05
G00X9.5696Y-4.7687
M15
G01X9.5696Y-4.6899
M16
G05
T0
M30
